<?xml version="1.0" encoding="UTF-8" standalone="no"?>
<svg
   xmlns:dc="http://purl.org/dc/elements/1.1/"
   xmlns:cc="http://creativecommons.org/ns#"
   xmlns:rdf="http://www.w3.org/1999/02/22-rdf-syntax-ns#"
   xmlns:svg="http://www.w3.org/2000/svg"
   xmlns="http://www.w3.org/2000/svg"
   xmlns:sodipodi="http://sodipodi.sourceforge.net/DTD/sodipodi-0.dtd"
   xmlns:inkscape="http://www.inkscape.org/namespaces/inkscape"
   sodipodi:docname="sp3ctrum_gray.svg"
   inkscape:version="1.0 (4035a4f, 2020-05-01)"
   id="svg1021"
   version="1.1"
   viewBox="0 0 52.916666 39.6875"
   height="150"
   width="200">
  <defs
     id="defs1015" />
  <sodipodi:namedview
     inkscape:window-maximized="0"
     inkscape:window-y="23"
     inkscape:window-x="576"
     inkscape:window-height="996"
     inkscape:window-width="1636"
     units="px"
     showgrid="true"
     inkscape:document-rotation="0"
     inkscape:current-layer="layer1"
     inkscape:document-units="mm"
     inkscape:cy="89.941178"
     inkscape:cx="112.80778"
     inkscape:zoom="2.4581423"
     inkscape:pageshadow="2"
     inkscape:pageopacity="0.0"
     borderopacity="1.0"
     bordercolor="#666666"
     pagecolor="#ffffff"
     id="base">
    <inkscape:grid
       id="grid2699"
       type="xygrid" />
  </sodipodi:namedview>
  <metadata
     id="metadata1018">
    <rdf:RDF>
      <cc:Work
         rdf:about="">
        <dc:format>image/svg+xml</dc:format>
        <dc:type
           rdf:resource="http://purl.org/dc/dcmitype/StillImage" />
        <dc:title></dc:title>
      </cc:Work>
    </rdf:RDF>
  </metadata>
  <g
     id="layer1"
     inkscape:groupmode="layer"
     inkscape:label="Layer 1">
    <g
       id="g911"
       transform="matrix(0.07023481,0,0,-0.07023481,49.7369,36.995323)"
       style="fill:#e3e3e3;fill-opacity:1">
      <path
         d="m 0,0 h -659.434 c -9.269,0 -16.783,7.515 -16.783,16.783 v 456.976 c 0,9.269 7.514,16.783 16.783,16.783 H 0 c 9.27,0 16.783,-7.514 16.783,-16.783 V 16.783 C 16.783,7.515 9.27,0 0,0 Z"
         style="fill:#e3e3e3;fill-opacity:1;stroke:#62338c;stroke-width:8;stroke-linecap:butt;stroke-linejoin:miter;stroke-miterlimit:10;stroke-dasharray:none;stroke-opacity:1"
         id="path913" />
    </g>
    <g
       id="g851"
       transform="matrix(0.07023481,0,0,-0.07023481,44.455576,28.461381)">
      <path
         d="M 0,0 C -0.207,4.564 3.276,9.466 7.84,9.674 12.402,9.881 16.27,6.349 16.477,1.784 16.684,-2.78 13.153,-6.648 8.591,-6.855 4.027,-7.063 0.208,-4.564 0,0"
         style="fill:#df0027;fill-opacity:1;fill-rule:nonzero;stroke:none"
         id="path853" />
    </g>
    <g
       id="g855"
       transform="matrix(0.07023481,0,0,-0.07023481,44.455576,28.461381)">
      <path
         d="M 0,0 C -0.207,4.564 3.276,9.466 7.84,9.674 12.402,9.881 16.27,6.349 16.477,1.784 16.684,-2.78 13.153,-6.648 8.591,-6.855 4.027,-7.063 0.208,-4.564 0,0 Z"
         style="fill:none;stroke:#000000;stroke-width:1.002;stroke-linecap:round;stroke-linejoin:round;stroke-miterlimit:4;stroke-dasharray:none;stroke-opacity:1"
         id="path857" />
    </g>
    <g
       id="g859"
       transform="matrix(0.07023481,0,0,-0.07023481,50.266887,26.526911)">
      <path
         d="M 0,0 -80.506,-80.021"
         style="fill:none;stroke:#000000;stroke-width:10;stroke-linecap:round;stroke-linejoin:round;stroke-miterlimit:4;stroke-dasharray:none;stroke-opacity:1"
         id="path861" />
    </g>
    <g
       id="g863"
       transform="matrix(0.07023481,0,0,-0.07023481,45.848403,32.149671)">
      <path
         d="m 0,0 8.904,-17.001 -18.324,3.708 -5.791,-18.236 -8.964,18.322 -17.888,-5.921 6.015,17.489 -14.806,9.544 19.61,5.432 L -33.38,31.214 -17.123,18.898 -3.036,33.539 -4.409,13.8 15.554,11.491 Z"
         style="fill:#fad741;fill-opacity:1;fill-rule:nonzero;stroke:none"
         id="path865" />
    </g>
    <g
       id="g867"
       transform="matrix(0.07023481,0,0,-0.07023481,45.848403,32.149671)">
      <path
         d="m 0,0 8.904,-17.001 -18.324,3.708 -5.791,-18.236 -8.964,18.322 -17.888,-5.921 6.015,17.489 -14.806,9.544 19.61,5.432 L -33.38,31.214 -17.123,18.898 -3.036,33.539 -4.409,13.8 15.554,11.491 Z"
         style="fill:none;stroke:#000000;stroke-width:1.002;stroke-linecap:round;stroke-linejoin:round;stroke-miterlimit:4;stroke-dasharray:none;stroke-opacity:1"
         id="path869" />
    </g>
    <g
       id="g871"
       transform="matrix(0.07023481,0,0,-0.07023481,45.004903,32.586651)">
      <path
         d="M 0,0 5.307,3.931"
         style="fill:none;stroke:#000000;stroke-width:0.5;stroke-linecap:round;stroke-linejoin:round;stroke-miterlimit:4;stroke-dasharray:none;stroke-opacity:1"
         id="path873" />
    </g>
    <g
       id="g875"
       transform="matrix(0.07023481,0,0,-0.07023481,44.890084,32.253035)">
      <path
         d="M 0,0 6.301,4.922"
         style="fill:none;stroke:#000000;stroke-width:0.5;stroke-linecap:round;stroke-linejoin:round;stroke-miterlimit:4;stroke-dasharray:none;stroke-opacity:1"
         id="path877" />
    </g>
    <g
       id="g879"
       transform="matrix(0.07023481,0,0,-0.07023481,44.7955,31.925108)">
      <path
         d="M 0,0 5.447,4.978"
         style="fill:none;stroke:#000000;stroke-width:0.5;stroke-linecap:round;stroke-linejoin:round;stroke-miterlimit:4;stroke-dasharray:none;stroke-opacity:1"
         id="path881" />
    </g>
    <g
       id="g883"
       transform="matrix(0.07023481,0,0,-0.07023481,45.81678,35.702225)">
      <path
         d="m 0,0 c -0.207,4.564 3.276,9.466 7.839,9.673 4.563,0.208 8.43,-3.325 8.638,-7.89 C 16.684,-2.781 13.153,-6.648 8.59,-6.856 4.027,-7.063 0.207,-4.564 0,0"
         style="fill:#df0027;fill-opacity:1;fill-rule:nonzero;stroke:none"
         id="path885" />
    </g>
    <g
       id="g887"
       transform="matrix(0.07023481,0,0,-0.07023481,45.81678,35.702225)">
      <path
         d="m 0,0 c -0.207,4.564 3.276,9.466 7.839,9.673 4.563,0.208 8.43,-3.325 8.638,-7.89 C 16.684,-2.781 13.153,-6.648 8.59,-6.856 4.027,-7.063 0.207,-4.564 0,0 Z"
         style="fill:none;stroke:#000000;stroke-width:1.002;stroke-linecap:round;stroke-linejoin:round;stroke-miterlimit:4;stroke-dasharray:none;stroke-opacity:1"
         id="path889" />
    </g>
    <g
       id="g891"
       transform="matrix(0.07023481,0,0,-0.07023481,40.117269,30.191531)">
      <path
         d="M 0,0 C -0.207,4.564 3.276,9.466 7.84,9.673 12.402,9.88 16.27,6.348 16.477,1.783 16.684,-2.781 13.153,-6.649 8.591,-6.856 4.027,-7.063 0.208,-4.565 0,0"
         style="fill:#df0027;fill-opacity:1;fill-rule:nonzero;stroke:none"
         id="path893" />
    </g>
    <g
       id="g895"
       transform="matrix(0.07023481,0,0,-0.07023481,40.117269,30.191531)">
      <path
         d="M 0,0 C -0.207,4.564 3.276,9.466 7.84,9.673 12.402,9.88 16.27,6.348 16.477,1.783 16.684,-2.781 13.153,-6.649 8.591,-6.856 4.027,-7.063 0.208,-4.565 0,0 Z"
         style="fill:none;stroke:#000000;stroke-width:1.002;stroke-linecap:round;stroke-linejoin:round;stroke-miterlimit:4;stroke-dasharray:none;stroke-opacity:1"
         id="path897" />
    </g>
    <g
       id="g899"
       transform="matrix(0.07023481,0,0,-0.07023481,47.575604,32.357426)">
      <path
         d="m 0,0 c -0.207,4.564 3.276,9.466 7.839,9.674 4.563,0.207 8.43,-3.325 8.638,-7.89 C 16.684,-2.78 13.153,-6.648 8.59,-6.855 4.027,-7.062 0.207,-4.564 0,0"
         style="fill:#df0027;fill-opacity:1;fill-rule:nonzero;stroke:none"
         id="path901" />
    </g>
    <g
       id="g903"
       transform="matrix(0.07023481,0,0,-0.07023481,47.575604,32.357426)">
      <path
         d="m 0,0 c -0.207,4.564 3.276,9.466 7.839,9.674 4.563,0.207 8.43,-3.325 8.638,-7.89 C 16.684,-2.78 13.153,-6.648 8.59,-6.855 4.027,-7.062 0.207,-4.564 0,0 Z"
         style="fill:none;stroke:#000000;stroke-width:1.002;stroke-linecap:round;stroke-linejoin:round;stroke-miterlimit:4;stroke-dasharray:none;stroke-opacity:1"
         id="path905" />
    </g>
    <g
       id="g907"
       transform="matrix(0.07023481,0,0,-0.07023481,43.224956,29.336781)">
      <path
         d="M 0,0 -20,23"
         style="fill:none;stroke:#62338c;stroke-width:5;stroke-linecap:round;stroke-linejoin:round;stroke-miterlimit:4;stroke-dasharray:none;stroke-opacity:1"
         id="path909" />
    </g>
    <g
       id="g915"
       transform="matrix(0.07023481,0,0,-0.07023481,15.843055,2.6317456)">
      <path
         d="m 0,0 0.337,-2.775 0.338,-2.763 0.35,-2.75 0.337,-2.75 0.338,-2.737 0.35,-2.737 0.337,-2.725 0.338,-2.713 0.35,-2.713 0.338,-2.699 0.337,-2.7 0.35,-2.688 0.337,-2.675 0.338,-2.662 0.337,-2.663 0.35,-2.65 0.338,-2.637 0.337,-2.638 0.35,-2.625 0.338,-2.612 0.338,-2.613 0.349,-2.587 0.338,-2.588 0.338,-2.575 0.35,-2.562 0.337,-2.563 0.337,-2.55 0.338,-2.537 0.35,-2.525 0.337,-2.513 0.338,-2.5 0.35,-2.5 0.337,-2.475 0.338,-2.475 0.35,-2.463 0.338,-2.449 0.337,-2.438 0.337,-2.425 0.351,-2.412 0.337,-2.413 0.337,-2.387 0.35,-2.388 0.338,-2.362 0.337,-2.363 0.35,-2.35 0.338,-2.325 0.338,-2.325 0.349,-2.312 0.338,-2.301 0.337,-2.287 0.338,-2.262 0.35,-2.263 0.337,-2.25 0.338,-2.237 0.35,-2.225 0.337,-2.213 0.338,-2.2 0.35,-2.175 0.337,-2.175 0.338,-2.162 0.35,-2.15 0.338,-2.125 0.337,-2.125 0.337,-2.113 0.35,-2.087 0.338,-2.088 0.337,-2.062 0.35,-2.05 0.338,-2.05 0.337,-2.025 0.35,-2.013 0.338,-2 0.338,-1.987 0.349,-1.976 0.338,-1.962 0.337,-1.95 0.338,-1.925 0.35,-1.925 0.337,-1.913 0.338,-1.887 0.35,-1.875 0.337,-1.863 0.338,-1.862 0.35,-1.838 0.337,-1.812 0.338,-1.813 0.337,-1.8 0.351,-1.774 0.337,-1.775 0.337,-1.75 0.35,-1.75 0.338,-1.725 0.337,-1.713 0.35,-1.7 0.338,-1.688 0.337,-1.662 0.35,-1.663 0.338,-1.637 0.338,-1.637 0.337,-1.613 0.35,-1.6 0.338,-1.587 0.337,-1.575 0.35,-1.563 0.337,-1.55 0.338,-1.538 0.35,-1.512 0.337,-1.5 0.338,-1.5 0.35,-1.475 0.337,-1.463 0.338,-1.449 0.338,-1.438 0.35,-1.425 0.337,-1.412 0.337,-1.388 0.351,-1.388 0.337,-1.362 0.337,-1.362 0.35,-1.338 0.338,-1.325 0.337,-1.325 0.35,-1.3 0.338,-1.288 0.338,-1.274 0.337,-1.263 0.35,-1.237 0.338,-1.238 0.337,-1.225 0.35,-1.213 0.337,-1.187 0.338,-1.188 0.35,-1.162 0.337,-1.162 0.338,-1.138 0.35,-1.125 0.337,-1.125 0.338,-1.1 0.338,-1.087 0.35,-1.088 0.337,-1.063 0.337,-1.049 0.351,-1.05 0.337,-1.026 0.337,-1.012 0.35,-1 0.338,-1 0.337,-0.975 0.338,-0.963 0.35,-0.949 0.338,-0.95 0.337,-0.925 0.35,-0.926 0.338,-0.899 0.337,-0.888 0.35,-0.888 0.337,-0.875 0.338,-0.849 0.35,-0.851 0.337,-0.837 0.338,-0.825 0.338,-0.812 0.349,-0.8 0.338,-0.788 0.338,-0.775 0.35,-0.762 0.337,-0.763 0.337,-0.737 0.351,-0.738 0.337,-0.725 0.337,-0.712 0.35,-0.7 0.338,-0.688 0.337,-0.675 0.338,-0.675 0.35,-0.65 0.338,-0.65 0.337,-0.637 0.35,-0.625 0.338,-0.613 0.337,-0.613 0.35,-0.599 0.337,-0.575 0.338,-0.588 0.35,-0.563 0.337,-0.55 0.338,-0.549 0.338,-0.538 0.349,-0.525 0.338,-0.525 0.338,-0.5 0.35,-0.5 0.337,-0.488 0.337,-0.487 0.351,-0.475 0.337,-0.462 0.337,-0.451 0.338,-0.437 0.35,-0.438 0.337,-0.424 0.338,-0.425 0.35,-0.413 0.338,-0.4 0.337,-0.387 0.35,-0.388 0.338,-0.375 0.337,-0.362 0.35,-0.363 0.337,-0.35 0.338,-0.35 0.337,-0.338 0.35,-0.324 0.338,-0.325 0.338,-0.313 0.349,-0.3 0.338,-0.3 0.338,-0.287 0.35,-0.288 0.337,-0.275 0.337,-0.263 0.351,-0.262 0.337,-0.262 0.337,-0.238 0.338,-0.25 0.35,-0.225 0.337,-0.237 0.338,-0.213 0.35,-0.225 0.338,-0.2 0.337,-0.2 0.35,-0.2 0.338,-0.188 0.337,-0.187 0.35,-0.175 0.337,-0.175 0.338,-0.162 0.337,-0.163 0.35,-0.15 0.338,-0.15 0.338,-0.138 0.349,-0.137 0.338,-0.137 0.338,-0.125 0.35,-0.125 0.337,-0.113 0.337,-0.113 0.351,-0.099 0.337,-0.101 0.337,-0.099 0.338,-0.088 0.35,-0.087 0.337,-0.088 0.338,-0.075 0.35,-0.075 0.338,-0.062 0.337,-0.075 0.35,-0.05 0.338,-0.063 0.337,-0.05 0.337,-0.05 0.35,-0.037 0.338,-0.05 0.337,-0.038 0.35,-0.025 0.338,-0.038 0.338,-0.024 0.349,-0.013 0.338,-0.025 0.338,-0.013 0.35,-0.012 0.337,-0.012 h 0.337 0.338 0.35 0.337 0.338 l 0.35,0.012 0.337,0.012 0.338,0.013 0.35,0.025 0.338,0.013 0.337,0.024 0.35,0.026 0.338,0.024 0.337,0.026 0.337,0.037 0.35,0.025 0.338,0.037 0.337,0.038 0.35,0.037 0.338,0.05 0.338,0.038 0.349,0.05 0.338,0.037 0.338,0.051 0.35,0.05 0.337,0.05 0.337,0.049 0.338,0.05 0.35,0.063 0.337,0.05 0.338,0.063 0.35,0.062 0.337,0.05 0.338,0.063 0.35,0.062 0.338,0.063 0.337,0.062 0.35,0.063 0.338,0.062 0.337,0.075 0.337,0.063 0.35,0.062 0.338,0.063 0.337,0.074 0.35,0.063 0.338,0.075 0.338,0.062 0.349,0.076 0.338,0.062 0.338,0.075 0.337,0.063 0.35,0.075 0.337,0.062 0.338,0.075 0.35,0.062 0.337,0.075 0.338,0.063 0.35,0.062 0.337,0.076 0.338,0.062 0.35,0.075 0.338,0.063 0.337,0.062 0.337,0.063 0.351,0.075 0.337,0.062 0.337,0.063 0.35,0.062 0.338,0.063 0.337,0.062 0.35,0.063 0.338,0.05 0.338,0.062 0.349,0.063 0.338,0.05 0.338,0.062 0.337,0.05 0.35,0.05 0.337,0.05 0.338,0.063 0.35,0.05 0.337,0.037 0.338,0.05 0.35,0.05 0.337,0.038 0.338,0.049 0.35,0.038 0.338,0.05 0.337,0.037 0.337,0.038 0.351,0.038 0.337,0.025 0.337,0.037 0.35,0.025 0.338,0.038 0.337,0.025 0.35,0.024 0.338,0.026 0.338,0.024 0.337,0.013 0.35,0.025 0.338,0.013 0.337,0.012 0.35,0.025 h 0.337 l 0.338,0.013 0.35,0.012 h 0.337 0.338 l 0.35,0.012 0.337,-0.012 h 0.338 0.337 l 0.351,-0.012 0.337,-0.013 h 0.337 l 0.35,-0.025 0.338,-0.012 0.337,-0.013 0.35,-0.025 0.338,-0.025 0.337,-0.025 0.35,-0.025 0.338,-0.025 0.338,-0.038 0.337,-0.037 0.35,-0.025 0.337,-0.05 0.338,-0.037 0.35,-0.038 0.337,-0.05 0.338,-0.05 0.35,-0.05 0.337,-0.05 0.338,-0.062 0.35,-0.051 0.337,-0.062 0.338,-0.063 0.337,-0.074 0.351,-0.063 0.337,-0.075 0.337,-0.075 0.35,-0.075 0.338,-0.075 0.337,-0.087 0.35,-0.075 0.338,-0.088 0.337,-0.087 0.35,-0.088 0.338,-0.1 0.338,-0.1 0.337,-0.1 0.35,-0.1 0.337,-0.1 0.338,-0.112 0.35,-0.1 0.337,-0.113 0.338,-0.113 0.35,-0.125 0.337,-0.112 0.338,-0.125 0.338,-0.125 0.349,-0.125 0.338,-0.138 0.337,-0.125 0.351,-0.137 0.337,-0.137 0.337,-0.15 0.35,-0.138 0.338,-0.15 0.337,-0.15 0.35,-0.15 0.338,-0.15 0.337,-0.15 0.338,-0.162 0.35,-0.163 0.338,-0.162 0.337,-0.163 0.35,-0.175 0.337,-0.175 0.338,-0.175 0.35,-0.175 0.337,-0.175 0.338,-0.187 0.35,-0.176 0.337,-0.187 0.338,-0.188 0.338,-0.199 0.349,-0.188 0.338,-0.2 0.337,-0.2 0.351,-0.2 0.337,-0.2 0.337,-0.212 0.35,-0.213 0.338,-0.212 0.337,-0.213 0.35,-0.213 0.338,-0.212 0.337,-0.225 0.338,-0.225 0.35,-0.225 0.338,-0.225 0.337,-0.237 0.35,-0.225 0.337,-0.238 0.338,-0.238 0.35,-0.237 0.337,-0.25 0.338,-0.237 0.337,-0.25 0.35,-0.25 0.338,-0.25 0.338,-0.25 0.349,-0.263 0.338,-0.25 0.337,-0.263 0.351,-0.262 0.337,-0.262 0.337,-0.263 0.35,-0.275 0.338,-0.275 0.337,-0.262 0.338,-0.276 0.35,-0.274 0.337,-0.288 0.338,-0.275 0.35,-0.288 0.338,-0.287 0.337,-0.288 0.35,-0.287 0.337,-0.287 0.338,-0.288 0.35,-0.3 0.337,-0.287 0.338,-0.301 0.337,-0.3 0.35,-0.299 0.338,-0.313 0.338,-0.3 0.349,-0.312 0.338,-0.3 0.337,-0.313 0.351,-0.312 0.337,-0.313 0.337,-0.325 0.35,-0.312 0.337,-0.325 0.338,-0.313 0.338,-0.325 0.35,-0.325 0.338,-0.325 0.337,-0.325 0.35,-0.325 0.337,-0.338 0.338,-0.324 0.35,-0.338 0.337,-0.338 0.337,-0.337 0.351,-0.338 0.337,-0.337 0.338,-0.337 0.338,-0.338 0.349,-0.35 0.338,-0.338 0.337,-0.349 0.351,-0.35 0.337,-0.338 0.337,-0.35 0.35,-0.35 0.338,-0.35 0.337,-0.362 0.338,-0.351 0.349,-0.349 0.338,-0.363 0.338,-0.35 0.35,-0.362 0.338,-0.363 0.337,-0.362 0.35,-0.363 0.337,-0.363 0.338,-0.362 0.35,-0.362 0.337,-0.363 0.337,-0.363 0.338,-0.375 0.35,-0.362 0.338,-0.375 0.338,-0.362 0.349,-0.375 0.338,-0.375 0.337,-0.363 0.351,-0.375 0.337,-0.375 0.337,-0.375 0.35,-0.375 0.338,-0.375 0.337,-0.375 0.338,-0.375 0.349,-0.387 0.338,-0.375 0.338,-0.375 0.35,-0.375 0.338,-0.388 0.337,-0.375 0.35,-0.388 0.337,-0.375 0.338,-0.387 0.35,-0.375 0.337,-0.387 0.337,-0.388 0.338,-0.375 0.35,-0.388 0.338,-0.387 0.338,-0.375 0.349,-0.387 0.338,-0.388 0.337,-0.387 0.351,-0.388 0.337,-0.375 0.337,-0.388 0.35,-0.387 0.338,-0.387 0.337,-0.388 0.338,-0.388 0.349,-0.387 0.338,-0.387 0.338,-0.388 0.35,-0.387 0.338,-0.388 0.337,-0.388 0.35,-0.387 0.337,-0.387 0.338,-0.388 0.337,-0.388 0.35,-0.375 0.337,-0.387 0.338,-0.387 0.35,-0.388 0.338,-0.387 0.338,-0.388 0.349,-0.388 0.338,-0.387 0.337,-0.387 0.351,-0.388 0.337,-0.375 0.337,-0.388 0.337,-0.387 0.351,-0.387 0.337,-0.388 0.338,-0.375 0.349,-0.387 0.338,-0.388 0.338,-0.375 0.35,-0.388 0.338,-0.375 0.337,-0.387 0.35,-0.387 0.337,-0.375 0.338,-0.375 0.337,-0.388 0.35,-0.375 0.337,-0.388 0.338,-0.375 0.35,-0.375 0.338,-0.375 0.338,-0.375 0.349,-0.387 0.338,-0.375 0.337,-0.375 0.351,-0.375 0.337,-0.375 0.337,-0.363 0.337,-0.375 0.351,-0.375 0.337,-0.375 0.338,-0.362 0.349,-0.375 0.338,-0.375 0.338,-0.362 0.35,-0.375 0.338,-0.363 0.337,-0.363 0.337,-0.375 0.35,-0.362 0.338,-0.362 0.337,-0.363 0.35,-0.362 0.337,-0.363 0.338,-0.363 0.35,-0.362 0.338,-0.35 0.338,-0.363 0.349,-0.362 0.338,-0.35 0.337,-0.362 0.338,-0.351 0.35,-0.349 0.337,-0.363 0.337,-0.35 0.351,-0.35 0.337,-0.35 0.338,-0.35 0.349,-0.35 0.338,-0.35 0.338,-0.337 0.35,-0.351 0.338,-0.349 0.337,-0.338 0.337,-0.337 0.35,-0.351 0.338,-0.337 0.337,-0.337 0.35,-0.338 0.337,-0.337 0.338,-0.338 0.35,-0.337 0.338,-0.325 0.338,-0.338 0.349,-0.337 0.338,-0.325 0.337,-0.325 0.338,-0.338 0.35,-0.325 0.337,-0.325 0.337,-0.325 0.351,-0.325 0.337,-0.325 0.338,-0.313 0.349,-0.324 0.338,-0.325 0.338,-0.313 0.35,-0.312 0.338,-0.325 0.337,-0.313 0.337,-0.312 0.35,-0.313 0.338,-0.312 0.337,-0.313 0.35,-0.3 0.337,-0.312 0.338,-0.3 0.35,-0.313 0.338,-0.3 0.338,-0.3 0.337,-0.3 0.35,-0.3 0.337,-0.3 0.338,-0.3 0.35,-0.287 0.337,-0.3 0.337,-0.3 0.351,-0.288 0.337,-0.287 0.338,-0.288 0.349,-0.287 0.338,-0.288 0.338,-0.288 0.337,-0.287 0.351,-0.288 0.337,-0.274 0.337,-0.288 0.35,-0.275 0.338,-0.275 0.337,-0.275 0.35,-0.275 0.337,-0.275 0.338,-0.275 0.35,-0.275 0.338,-0.263 0.338,-0.274 0.337,-0.263 0.35,-0.275 0.337,-0.262 0.338,-0.263 0.35,-0.262 0.337,-0.263 0.337,-0.25 0.351,-0.263 0.337,-0.262 0.338,-0.25 0.349,-0.25 0.338,-0.25 0.338,-0.262 0.337,-0.25 0.351,-0.238 0.337,-0.25 0.337,-0.25 0.35,-0.238 0.338,-0.25 0.337,-0.237 0.35,-0.25 0.337,-0.237 0.338,-0.238 0.338,-0.237 0.35,-0.226 0.338,-0.237 0.337,-0.237 0.35,-0.226 0.337,-0.224 0.338,-0.238 0.35,-0.225 0.337,-0.225 0.337,-0.225 0.351,-0.225 0.337,-0.212 0.338,-0.226 0.338,-0.224 0.349,-0.213 0.338,-0.212 0.337,-0.213 0.351,-0.213 0.337,-0.212 0.337,-0.213 0.35,-0.212 0.338,-0.212 0.337,-0.201 0.35,-0.212 0.337,-0.2 0.338,-0.2 0.338,-0.2 0.35,-0.2 0.338,-0.2 0.337,-0.2 0.35,-0.2 0.337,-0.187 0.338,-0.201 0.35,-0.187 0.337,-0.188 0.337,-0.187 0.351,-0.188 0.337,-0.187 0.338,-0.188 0.338,-0.187 0.349,-0.175 0.338,-0.187 0.337,-0.175 0.351,-0.175 0.337,-0.188 0.337,-0.175 0.35,-0.175 0.338,-0.162 0.337,-0.175 0.35,-0.176 0.337,-0.162 0.338,-0.175 0.338,-0.163 0.35,-0.162 0.338,-0.162 0.337,-0.163 0.35,-0.162 0.337,-0.163 0.338,-0.162 0.35,-0.151 0.337,-0.162 0.337,-0.15 0.338,-0.162 0.35,-0.151 0.338,-0.149 0.338,-0.151 0.349,-0.149 0.338,-0.138 0.337,-0.15 0.351,-0.138 0.337,-0.149 0.337,-0.138 0.35,-0.138 0.338,-0.149 0.337,-0.138 0.338,-0.137 0.349,-0.125 0.338,-0.138 0.338,-0.138 0.35,-0.125 0.338,-0.137 0.337,-0.125 0.35,-0.125 0.337,-0.125 0.338,-0.125 0.35,-0.125 0.337,-0.125 0.337,-0.125 0.338,-0.113 0.35,-0.125 0.338,-0.112 0.338,-0.125 0.349,-0.112 0.338,-0.113 0.337,-0.112 0.351,-0.113 0.337,-0.1 0.337,-0.112 0.35,-0.113 0.338,-0.1 0.337,-0.112 0.338,-0.1 0.349,-0.101 0.338,-0.099 0.338,-0.101 0.35,-0.099 0.338,-0.1 0.337,-0.101 0.35,-0.087 0.337,-0.1 0.338,-0.087 0.337,-0.088 0.35,-0.1 0.337,-0.087 0.338,-0.088 0.35,-0.087 0.338,-0.075 0.338,-0.088 0.349,-0.087 0.338,-0.075 0.337,-0.088 0.351,-0.075 0.337,-0.075 0.337,-0.075 0.337,-0.075 0.351,-0.075 0.337,-0.075 0.338,-0.075 0.349,-0.062 0.338,-0.075 0.338,-0.063 0.35,-0.075 0.338,-0.063 0.337,-0.062 0.35,-0.063 0.337,-0.062 0.338,-0.063 0.337,-0.062 0.35,-0.05 0.337,-0.062 0.338,-0.05 0.35,-0.063 0.338,-0.05 0.338,-0.05 0.349,-0.05 0.338,-0.05 0.337,-0.05 0.351,-0.05 0.337,-0.05 0.337,-0.037 0.337,-0.05 0.351,-0.038 0.337,-0.037 0.338,-0.05 0.349,-0.038 0.338,-0.037 0.338,-0.038 0.35,-0.025 0.338,-0.037 0.337,-0.038 0.35,-0.025 0.337,-0.038 0.338,-0.024 0.337,-0.025 0.35,-0.026 0.337,-0.037 0.338,-0.013 0.35,-0.024 0.338,-0.025 0.338,-0.026 0.349,-0.012 0.338,-0.025 0.337,-0.013 0.338,-0.012 0.35,-0.025 0.337,-0.012 0.337,-0.013 h 0.351 l 0.337,-0.013 0.338,-0.012 0.349,-0.012 h 0.338 0.338 l 0.35,-0.013 h 0.338 0.337 0.337 0.35 0.338 l 0.337,0.013 h 0.35 0.337 l 0.338,0.012 0.35,0.012 h 0.338 l 0.338,0.013 0.349,0.013 0.338,0.012 0.337,0.025 0.338,0.012 0.35,0.013 0.337,0.025 0.337,0.012 0.351,0.026 0.337,0.025 0.338,0.012 0.349,0.025 0.338,0.025 0.338,0.038 0.35,0.025 0.338,0.024 0.337,0.038 0.337,0.025 0.35,0.038 0.338,0.037 0.337,0.025 0.35,0.038 0.337,0.037 0.338,0.05 0.35,0.038 0.338,0.037 0.338,0.05 0.349,0.038 0.338,0.049 0.337,0.038 0.338,0.05 0.35,0.05 0.337,0.05 0.337,0.05 0.351,0.062 0.337,0.051 0.338,0.05 0.349,0.062 0.338,0.063 0.338,0.05 0.337,0.062 0.351,0.063 0.337,0.062 0.337,0.063 0.35,0.075 0.338,0.062 0.337,0.063 0.35,0.075 0.337,0.074 0.338,0.063 0.35,0.075 0.338,0.075 0.338,0.075 0.337,0.075 0.35,0.087 0.337,0.076 0.338,0.075 0.35,0.087 0.337,0.088 0.337,0.075 0.351,0.087 0.337,0.088 0.338,0.087 0.349,0.1 0.338,0.088 0.338,0.087 0.337,0.1 0.351,0.087 0.337,0.101 0.337,0.1 0.35,0.099 0.338,0.101 0.337,0.099 0.35,0.101 0.337,0.1 0.338,0.112 0.35,0.1 0.338,0.113 0.338,0.112 0.337,0.1 0.35,0.113 0.337,0.112 0.338,0.113 0.35,0.125 0.337,0.112 0.337,0.112 0.351,0.125 0.337,0.125 0.338,0.113 0.338,0.125 0.349,0.125 0.338,0.125 0.337,0.137 0.351,0.125 0.337,0.125 0.337,0.138 0.35,0.125 0.338,0.138 0.337,0.137 0.35,0.138 0.337,0.137 0.338,0.137 0.338,0.138 0.35,0.138 0.338,0.149 0.337,0.138 0.35,0.15 0.337,0.15 0.338,0.137 0.35,0.151 0.337,0.149 0.337,0.151 0.351,0.162 0.337,0.15 0.338,0.162 0.338,0.151 0.349,0.162 0.338,0.15 0.337,0.162 0.351,0.163 0.337,0.162 0.337,0.175 0.35,0.163 0.338,0.162 0.337,0.175 0.35,0.163 0.337,0.175 0.338,0.175 0.338,0.175 0.35,0.175 0.338,0.175 0.337,0.175"
         style="fill:none;stroke:#62338c;stroke-width:9;stroke-linecap:butt;stroke-linejoin:miter;stroke-miterlimit:4;stroke-dasharray:none;stroke-opacity:1"
         id="path917" />
    </g>
    <g
       id="g919"
       transform="matrix(0.07023481,0,0,-0.07023481,2.2736775,32.516619)">
      <path
         d="m 0,0 0.35,0.912 0.337,0.912 0.338,0.938 0.35,0.95 0.337,0.963 0.338,0.962 0.35,0.988 0.338,1 0.337,1.012 0.35,1.038 0.338,1.037 0.337,1.05 0.337,1.075 0.351,1.088 0.337,1.099 0.337,1.113 0.35,1.125 0.338,1.137 0.338,1.163 0.349,1.175 0.338,1.188 0.338,1.2 0.35,1.212 0.337,1.237 0.338,1.25 0.337,1.263 0.35,1.275 0.338,1.3 0.337,1.313 0.35,1.325 0.337,1.349 0.338,1.351 0.35,1.387 0.338,1.387 0.337,1.414 0.338,1.424 0.35,1.438 0.337,1.462 0.338,1.475 0.35,1.488 0.337,1.512 0.337,1.525 0.351,1.538 0.337,1.562 0.338,1.576 0.349,1.586 0.338,1.613 0.338,1.637 0.337,1.638 0.35,1.662 0.338,1.688 0.337,1.7 0.35,1.713 0.337,1.737 0.338,1.75 0.35,1.776 0.337,1.787 0.338,1.799 0.35,1.826 0.338,1.838 0.337,1.862 0.338,1.875 0.35,1.899 0.337,1.913 0.337,1.938 0.351,1.95 0.337,1.962 0.337,1.987 0.35,2.013 0.338,2.025 0.338,2.037 0.349,2.063 0.338,2.075 0.338,2.1 0.337,2.125 0.35,2.125 0.338,2.163 0.337,2.162 0.35,2.2 0.337,2.2 0.338,2.225 0.35,2.25 0.337,2.263 0.338,2.287 0.338,2.3 0.35,2.313 0.337,2.337 0.338,2.35 0.35,2.375 0.337,2.4 0.337,2.4 0.351,2.438 0.337,2.437 0.337,2.475 0.351,2.475 0.337,2.5 0.338,2.525 0.337,2.525 0.35,2.563 0.338,2.575 0.337,2.587 0.35,2.6 0.338,2.625 0.337,2.65 0.35,2.65 0.338,2.675 0.337,2.7 0.35,2.712 0.337,2.726 0.338,2.75 0.338,2.762 0.35,2.775 0.337,2.788 0.338,2.812 0.35,2.837 0.337,2.838 0.338,2.863 0.35,2.875 0.337,2.9 0.337,2.899 0.351,2.925 0.337,2.95 0.338,2.951 0.337,2.974 0.35,2.988 0.338,3 0.337,3.012 0.35,3.026 0.338,3.049 0.337,3.063 0.35,3.075 0.338,3.088 0.337,3.1 0.35,3.112 0.337,3.138 0.338,3.137 0.338,3.163 0.35,3.175 0.337,3.175 0.338,3.2 0.35,3.212 0.337,3.213 0.338,3.237 0.35,3.25 0.337,3.25 0.337,3.275 0.338,3.275 0.35,3.288 0.338,3.312 0.337,3.313 0.35,3.325 0.338,3.325 0.337,3.35 0.35,3.35 0.338,3.362 0.337,3.375 0.35,3.388 0.338,3.387 0.337,3.4 0.338,3.413 0.349,3.425 0.338,3.425 0.338,3.425 0.35,3.45 0.337,3.45 0.338,3.45 0.35,3.462 0.337,3.475 0.338,3.475 0.35,3.475 0.337,3.488 0.337,3.5 0.338,3.5 0.35,3.5 0.338,3.512 0.337,3.512 0.35,3.526 0.338,3.512 0.337,3.525 0.709,7.163 h 133.229"
         style="fill:none;stroke:#62338c;stroke-width:9;stroke-linecap:butt;stroke-linejoin:miter;stroke-miterlimit:4;stroke-dasharray:none;stroke-opacity:1"
         id="path921" />
    </g>
    <g
       id="g923"
       transform="matrix(0.07023481,0,0,-0.07023481,34.224958,37.088401)">
      <path
         d="M 0,0 V 6.425 M -27.312,0 V 4.274 M -52.912,0 V 7.487 M -122.112,0 V 113.412 M -153.6,0 V 154.062 M -189.187,0 V 73.287 M -210.437,0 V 34.774 M -309.85,0 V 224.149 M -332.712,0 V 470.225 M -358.137,0 V 100.037 M -370.175,0 V 113.412 M -392.7,0 v 167.975"
         style="fill:none;stroke:#df0027;stroke-width:8;stroke-linecap:butt;stroke-linejoin:miter;stroke-miterlimit:4;stroke-dasharray:none;stroke-opacity:1"
         id="path925" />
    </g>
    <g
       id="g927"
       transform="matrix(0.07023481,0,0,-0.07023481,48.703272,35.587678)">
      <path
         d="M 0,0 -20,23"
         style="fill:none;stroke:#62338c;stroke-width:5;stroke-linecap:round;stroke-linejoin:round;stroke-miterlimit:4;stroke-dasharray:none;stroke-opacity:1"
         id="path929" />
    </g>
    <g
       id="g931"
       transform="matrix(0.07023481,0,0,-0.07023481,42.324731,32.299467)">
      <path
         d="M 0,0 -30.365,-2.635"
         style="fill:none;stroke:#62338c;stroke-width:5;stroke-linecap:round;stroke-linejoin:round;stroke-miterlimit:4;stroke-dasharray:none;stroke-opacity:1"
         id="path933" />
    </g>
    <g
       id="g935"
       transform="matrix(0.07023481,0,0,-0.07023481,43.859195,34.00767)">
      <path
         d="M 0,0 -12.061,-27.992"
         style="fill:none;stroke:#62338c;stroke-width:5;stroke-linecap:round;stroke-linejoin:round;stroke-miterlimit:4;stroke-dasharray:none;stroke-opacity:1"
         id="path937" />
    </g>
    <g
       id="g939"
       transform="matrix(0.07023481,0,0,-0.07023481,47.087796,5.7796552)">
      <path
         d="m 0,0 10.853,10.741 -0.626,1.356 c -1.106,2.393 -1.298,3.32 -1.31,6.325 -0.009,2.276 0.058,2.957 0.409,4.182 0.706,2.458 2.25,5.159 3.84,6.719 3.104,3.044 6.978,4.671 11.131,4.675 4.61,0.004 8.14,-1.469 11.41,-4.759 1.183,-1.191 1.708,-1.909 2.475,-3.385 C 39.612,23.1 40.003,21.532 40,18.543 39.998,15.547 39.603,13.942 38.208,11.271 36.737,8.451 34.646,6.398 31.51,4.696 29.455,3.581 27.991,3.217 25.136,3.113 22.233,3.007 21.036,3.216 18.323,4.299 L 16.653,4.965 15.691,4.059 C 15.162,3.56 10.288,-1.277 4.86,-6.69 l -9.869,-9.842 -2.149,2.235 c -1.183,1.229 -2.495,2.487 -2.917,2.796 -0.423,0.309 -0.77,0.606 -0.773,0.661 C -10.85,-10.785 -5.969,-5.907 0,0 m -24.436,-61.959 c 0.123,0.035 0.855,0.168 1.628,0.295 0.774,0.128 2.415,0.556 3.65,0.951 1.233,0.395 2.288,0.674 2.343,0.62 0.055,-0.054 1.877,-6.651 4.051,-14.659 l 3.951,-14.561 1.497,-0.134 c 0.822,-0.074 2.087,-0.312 2.811,-0.529 1.692,-0.507 4.324,-1.888 5.689,-2.982 1.648,-1.323 3.471,-3.716 4.264,-5.6 1.073,-2.549 1.282,-3.572 1.289,-6.303 0.007,-2.988 -0.296,-4.301 -1.617,-7.029 -0.851,-1.756 -1.153,-2.166 -2.838,-3.857 -1.669,-1.675 -2.11,-2.003 -3.852,-2.871 -2.737,-1.362 -4.404,-1.77 -7.217,-1.768 -2.788,0.003 -4.454,0.407 -7.209,1.747 -1.742,0.848 -2.169,1.163 -3.872,2.853 -1.468,1.457 -2.066,2.205 -2.565,3.212 -2.379,4.799 -2.645,8.841 -0.882,13.43 0.949,2.473 3.656,5.877 5.574,7.011 0.523,0.31 0.954,0.672 0.956,0.805 0.002,0.132 -1.694,6.501 -3.769,14.153 -2.074,7.651 -3.845,14.191 -3.937,14.531 -0.118,0.44 -0.103,0.639 0.055,0.685 m -23.71,30.831 c 0.822,6.099 4.268,11.303 9.657,14.579 5.161,3.137 11.28,3.733 17.089,1.662 2.654,-0.946 5.129,-2.393 6.84,-3.999 3.362,-3.155 5.455,-6.897 6.27,-11.216 0.431,-2.278 0.301,-6.278 -0.275,-8.491 -0.845,-3.244 -2.564,-6.313 -4.867,-8.692 -2.566,-2.65 -4.748,-4.081 -8.012,-5.257 -2.351,-0.846 -4.326,-1.12 -7.37,-1.02 -4.238,0.14 -7.125,1.039 -10.483,3.264 -4.225,2.801 -7.287,7.162 -8.459,12.051 -0.427,1.781 -0.624,5.378 -0.39,7.119 m 7.829,-99.334 13.001,12.889 0.722,-0.946 c 0.948,-1.241 2.725,-3.005 3.976,-3.948 0.552,-0.415 0.978,-0.81 0.949,-0.878 -0.029,-0.068 -5.848,-5.887 -12.929,-12.931 l -12.875,-12.809 -1.177,1.451 c -1.079,1.331 -3.18,3.316 -4.237,4.002 -0.426,0.277 -0.231,0.481 12.57,13.17 m -70.338,-21.178 c 0.391,1.141 0.841,2.82 0.999,3.731 0.158,0.91 0.322,1.69 0.365,1.733 0.042,0.042 6.732,-1.689 14.867,-3.847 l 14.791,-3.924 0.28,0.405 c 1.832,2.641 3.859,4.47 6.29,5.674 0.741,0.367 2.18,0.883 3.198,1.146 1.651,0.429 2.122,0.472 4.382,0.404 2.232,-0.068 2.74,-0.148 4.303,-0.676 3.321,-1.122 5.258,-2.444 7.246,-4.943 4.084,-5.13 4.659,-11.301 1.614,-17.346 -0.663,-1.316 -2.201,-3.142 -3.716,-4.411 -1.413,-1.184 -4.423,-2.65 -6.421,-3.127 -9.102,-2.174 -18.308,4.404 -19.11,13.655 l -0.122,1.397 -14.863,3.934 c -8.175,2.163 -14.852,3.975 -14.84,4.026 0.014,0.052 0.345,1.028 0.737,2.169 m -4.824,139.5 c 0.176,1.257 1.252,4.216 1.994,5.484 0.748,1.281 2.554,3.278 3.845,4.25 3.861,2.907 8.932,3.968 13.466,2.819 1.686,-0.428 4.363,-1.722 5.779,-2.793 3.269,-2.472 5.506,-6.607 5.959,-11.014 0.073,-0.696 0.171,-1.266 0.22,-1.265 0.101,0 27.192,-7.156 28.681,-7.576 l 0.963,-0.271 -0.443,-1.099 c -0.565,-1.402 -1.32,-4.231 -1.485,-5.562 -0.074,-0.593 -0.222,-1.031 -0.349,-1.031 -0.122,0 -6.734,1.724 -14.694,3.831 -7.96,2.107 -14.596,3.831 -14.745,3.831 -0.15,0 -0.458,-0.3 -0.684,-0.667 -1.075,-1.743 -3.231,-3.758 -5.274,-4.929 -1.453,-0.833 -4.108,-1.672 -6.105,-1.93 -3.985,-0.513 -8.475,0.832 -11.723,3.511 -2.244,1.851 -4.347,5.151 -5.111,8.021 -0.359,1.348 -0.518,4.804 -0.294,6.39 m -16.04,-28.035 12.983,12.881 1.116,-1.415 c 1.018,-1.291 2.693,-2.885 4.107,-3.906 l 0.552,-0.398 -12.889,-12.831 c -7.089,-7.057 -12.944,-12.846 -13.009,-12.865 -0.067,-0.018 -0.616,0.599 -1.224,1.371 -0.991,1.26 -2.692,2.88 -4.102,3.908 l -0.515,0.374 z m -26.39,-99.928 c 0.741,6.102 4.804,11.984 10.315,14.935 8.251,4.419 18.252,2.752 24.608,-4.1 3.37,-3.633 5.182,-8.291 5.186,-13.328 0.003,-2.661 -0.262,-4.306 -1.064,-6.618 -1.35,-3.888 -3.605,-6.965 -6.891,-9.402 -3.588,-2.66 -6.739,-3.779 -11.196,-3.971 -4.017,-0.173 -6.796,0.425 -10.302,2.214 -4.526,2.311 -7.753,5.965 -9.608,10.881 -0.997,2.64 -1.414,6.379 -1.048,9.389 m -14.607,72.023 c 0.746,3.005 2.012,5.29 4.112,7.421 2.187,2.221 4.689,3.622 7.719,4.326 1.481,0.343 2.131,0.393 4.052,0.313 2.673,-0.111 4.5,-0.61 7.087,-1.937 3.235,-1.659 6.101,-5.221 7.368,-9.159 0.701,-2.179 0.721,-5.692 0.045,-8.403 -0.843,-3.384 -3.83,-7.376 -6.908,-9.228 -0.28,-0.169 0.081,-1.633 3.559,-14.435 2.128,-7.835 3.914,-14.463 3.967,-14.726 0.097,-0.473 0.072,-0.485 -1.746,-0.809 -1.013,-0.18 -2.778,-0.643 -3.92,-1.029 l -2.075,-0.7 -3.826,14.158 c -2.104,7.788 -3.929,14.42 -4.056,14.74 -0.226,0.572 -0.257,0.584 -1.799,0.687 -1.822,0.123 -3.644,0.702 -5.78,1.838 -1.993,1.06 -3.337,2.16 -4.697,3.849 -1.317,1.634 -1.901,2.713 -2.676,4.938 -0.493,1.416 -0.563,1.896 -0.63,4.312 -0.054,1.992 0,3.019 0.204,3.844 m -33.259,-123.62 c 0.414,1.858 0.905,3.065 1.966,4.838 1.118,1.866 2.01,2.832 3.986,4.315 3.042,2.284 5.311,3.039 9.212,3.063 2.883,0.017 4.326,-0.277 6.754,-1.374 l 1.207,-0.547 10.868,10.795 10.868,10.794 0.512,-0.627 c 0.962,-1.175 3.526,-3.745 4.401,-4.412 l 0.873,-0.666 -10.855,-10.797 c -5.971,-5.939 -10.814,-10.889 -10.762,-11 0.641,-1.389 1.467,-3.641 1.628,-4.443 0.111,-0.554 0.208,-1.98 0.215,-3.167 0.014,-2.752 -0.453,-4.652 -1.78,-7.218 -0.781,-1.513 -1.277,-2.186 -2.562,-3.48 -2.72,-2.739 -5.744,-4.23 -9.512,-4.691 -7.464,-0.914 -14.821,4.038 -16.839,11.333 -0.447,1.616 -0.547,5.637 -0.18,7.284"
         style="fill:#33248f;fill-opacity:1;fill-rule:nonzero;stroke:none"
         id="path941" />
    </g>
  </g>
</svg>
